<svg xmlns="http://www.w3.org/2000/svg" xmlns:xlink="http://www.w3.org/1999/xlink" version="1.1" width="1000" height="1000" viewBox="0 0 1000 1000" xml:space="preserve">
<desc>Created with Fabric.js 3.5.0</desc>
<defs>
</defs>
<rect x="0" y="0" width="100%" height="100%" fill="#ffffff"/>
<g transform="matrix(3.885 0 0 3.9698 141.414 499.8007)" id="Layer_1-2" clip-path="url(#CLIPPATH_13)">
<linearGradient id="SVGID_10" gradientUnits="userSpaceOnUse" gradientTransform="matrix(-50.753 103.536 103.536 50.753 -147454.0156 194026.2031)" x1="-2073.99" y1="407.9115" x2="-2073.3591" y2="407.9115">
<stop offset="30%" style="stop-color:rgb(62,134,61);stop-opacity: 1"/>
<stop offset="50%" style="stop-color:rgb(85,147,79);stop-opacity: 1"/>
<stop offset="80%" style="stop-color:rgb(90,173,69);stop-opacity: 1"/>
</linearGradient>
<clipPath id="CLIPPATH_13">
	<path transform="matrix(1 0 0 1 -0.05 -0.1) translate(-24.65, -28.85)" id="SVGID_2_" d="M 23.3 1 L 1.2 13.7 c -0.9 0.5 -1.4 1.4 -1.4 2.3 v 25.6 c 0 1 0.5 1.8 1.4 2.3 l 22.1 12.8 c 0.9 0.5 1.8 0.5 2.7 0 L 48.1 44 c 0.9 -0.5 1.4 -1.4 1.4 -2.3 V 16.1 c 0 -1 -0.5 -1.8 -1.4 -2.3 L 26 1 C 25.1 0.5 24.2 0.5 23.3 1" stroke-linecap="round"/>
</clipPath>
<path style="stroke: none; stroke-width: 1; stroke-dasharray: none; stroke-linecap: butt; stroke-dashoffset: 0; stroke-linejoin: miter; stroke-miterlimit: 4; is-custom-font: none; font-file-url: none; fill: url(#SVGID_10); fill-rule: nonzero; opacity: 1;" transform=" translate(-24.7, -28.95)" d="M 71.9 11.6 L 9.5 -19 l -32 65.3 l 62.4 30.6 L 71.9 11.6 z" stroke-linecap="round"/>
</g>
<g transform="matrix(3.885 0 0 3.9698 141.0255 499.6022)" id="Layer_1-2" clip-path="url(#CLIPPATH_14)">
<linearGradient id="SVGID_11" gradientUnits="userSpaceOnUse" gradientTransform="matrix(142.407 -105.222 -105.222 -142.407 335195.0312 -165725.2812)" x1="-2078.9497" y1="372.0007" x2="-2078.5403" y2="372.0007">
<stop offset="56.99999999999999%" style="stop-color:rgb(62,134,61);stop-opacity: 1"/>
<stop offset="72%" style="stop-color:rgb(97,152,87);stop-opacity: 1"/>
<stop offset="100%" style="stop-color:rgb(118,172,100);stop-opacity: 1"/>
</linearGradient>
<clipPath id="CLIPPATH_14">
	<path transform="matrix(1 0 0 1 0 0) translate(-24.6, -28.9)" id="SVGID_5_" d="M 0.4 43.3 c 0.2 0.3 0.5 0.5 0.8 0.7 l 19 11 l 3.2 1.8 c 0.5 0.3 1 0.4 1.5 0.4 c 0.2 0 0.4 0 0.5 -0.1 l 23.4 -42.8 c -0.2 -0.2 -0.4 -0.4 -0.6 -0.5 L 33.7 5.4 L 26 0.9 c -0.2 -0.1 -0.5 -0.2 -0.7 -0.3 L 0.4 43.3 z" stroke-linecap="round"/>
</clipPath>
<path style="stroke: none; stroke-width: 1; stroke-dasharray: none; stroke-linecap: butt; stroke-dashoffset: 0; stroke-linejoin: miter; stroke-miterlimit: 4; is-custom-font: none; font-file-url: none; fill: url(#SVGID_11); fill-rule: nonzero; opacity: 1;" transform=" translate(-24.6, -28.9)" d="M -26.6 20.6 l 44.1 59.6 l 58.3 -43.1 l -44 -59.5 L -26.6 20.6 z" stroke-linecap="round"/>
</g>
<g transform="matrix(3.885 0 0 3.9698 144.1335 499.0068)" id="Layer_1-2" clip-path="url(#CLIPPATH_15)">
<linearGradient id="SVGID_12" gradientUnits="userSpaceOnUse" gradientTransform="matrix(129.889 0 0 -129.889 268419.4375 48413.3125)" x1="-2066.5195" y1="372.5073" x2="-2066.1484" y2="372.5073">
<stop offset="16%" style="stop-color:rgb(107,191,71);stop-opacity: 1"/>
<stop offset="38%" style="stop-color:rgb(121,180,97);stop-opacity: 1"/>
<stop offset="47%" style="stop-color:rgb(117,172,100);stop-opacity: 1"/>
<stop offset="70%" style="stop-color:rgb(101,158,90);stop-opacity: 1"/>
<stop offset="90%" style="stop-color:rgb(62,134,61);stop-opacity: 1"/>
</linearGradient>
<clipPath id="CLIPPATH_15">
	<path transform="matrix(1 0 0 1 0 -0.05) translate(-25.4, -28.7)" id="SVGID_8_" d="M 24.4 0.5 c -0.4 0 -0.8 0.2 -1.1 0.4 l -22 12.8 L 25.1 57 c 0.3 0 0.7 -0.2 1 -0.3 l 22.1 -12.8 c 0.7 -0.4 1.2 -1.1 1.3 -1.8 L 25.1 0.5 c -0.2 -0.1 -0.4 -0.1 -0.5 -0.1 C 24.6 0.5 24.5 0.5 24.4 0.5" stroke-linecap="round"/>
</clipPath>
<path style="stroke: none; stroke-width: 1; stroke-dasharray: none; stroke-linecap: butt; stroke-dashoffset: 0; stroke-linejoin: miter; stroke-miterlimit: 4; is-custom-font: none; font-file-url: none; fill: url(#SVGID_12); fill-rule: nonzero; opacity: 1;" transform=" translate(-25.4, -28.75)" d="M 1.3 0.5 V 57 h 48.2 V 0.5 H 1.3 z" stroke-linecap="round"/>
</g>
<g transform="matrix(1 0 0 1 544.8981 500)" style="" id="360417">
		
<path xml:space="preserve" font-family="Abel" font-size="108" font-style="normal" font-weight="normal" style="stroke: none; stroke-width: 1; stroke-dasharray: none; stroke-linecap: butt; stroke-dashoffset: 0; stroke-linejoin: miter; stroke-miterlimit: 4; is-custom-font: none; font-file-url: none; fill: rgb(255,255,255); fill-rule: nonzero; opacity: 1; white-space: pre;" d="M-255.39 16.42L-255.39 16.42Q-255.39 20.27-256.84 23.64Q-258.29 27.02-260.82 29.55Q-263.36 32.08-266.73 33.53Q-270.11 34.98-273.96 34.98L-273.96 34.98L-279.33 34.98Q-283.18 34.98-286.58 33.53Q-289.99 32.08-292.52 29.55Q-295.05 27.02-296.50 23.64Q-297.95 20.27-297.95 16.42L-297.95 16.42L-297.95-24.19Q-297.95-28.04-296.50-31.41Q-295.05-34.79-292.52-37.32Q-289.99-39.85-286.58-41.30Q-283.18-42.75-279.33-42.75L-279.33-42.75L-273.96-42.75Q-270.11-42.75-266.73-41.30Q-263.36-39.85-260.82-37.32Q-258.29-34.79-256.84-31.41Q-255.39-28.04-255.39-24.19L-255.39-24.19L-255.39-21.13L-262.20-20.07L-262.20-24.19Q-262.20-26.72-263.14-28.91Q-264.09-31.09-265.73-32.73Q-267.36-34.36-269.55-35.31Q-271.74-36.26-274.27-36.26L-274.27-36.26L-279.02-36.26Q-281.55-36.26-283.74-35.31Q-285.93-34.36-287.59-32.73Q-289.25-31.09-290.20-28.91Q-291.15-26.72-291.15-24.19L-291.15-24.19L-291.15 16.42Q-291.15 18.95-290.20 21.14Q-289.25 23.33-287.59 24.99Q-285.93 26.65-283.74 27.60Q-281.55 28.55-279.02 28.55L-279.02 28.55L-274.27 28.55Q-271.74 28.55-269.55 27.60Q-267.36 26.65-265.73 24.99Q-264.09 23.33-263.14 21.14Q-262.20 18.95-262.20 16.42L-262.20 16.42L-262.20 12.31L-255.39 13.41L-255.39 16.42ZM-198.81 16.42L-198.81 16.42Q-198.81 20.27-200.26 23.64Q-201.71 27.02-204.24 29.55Q-206.77 32.08-210.15 33.53Q-213.52 34.98-217.37 34.98L-217.37 34.98L-222.75 34.98Q-226.60 34.98-230.00 33.53Q-233.40 32.08-235.93 29.55Q-238.46 27.02-239.92 23.64Q-241.37 20.27-241.37 16.42L-241.37 16.42L-241.37-24.19Q-241.37-28.04-239.92-31.41Q-238.46-34.79-235.93-37.32Q-233.40-39.85-230.00-41.30Q-226.60-42.75-222.75-42.75L-222.75-42.75L-217.37-42.75Q-213.52-42.75-210.15-41.30Q-206.77-39.85-204.24-37.32Q-201.71-34.79-200.26-31.41Q-198.81-28.04-198.81-24.19L-198.81-24.19L-198.81 16.42ZM-205.61 16.42L-205.61-24.19Q-205.61-26.72-206.56-28.91Q-207.51-31.09-209.14-32.73Q-210.78-34.36-212.97-35.31Q-215.16-36.26-217.69-36.26L-217.69-36.26L-222.43-36.26Q-224.96-36.26-227.15-35.31Q-229.34-34.36-231.00-32.73Q-232.66-31.09-233.61-28.91Q-234.56-26.72-234.56-24.19L-234.56-24.19L-234.56 16.42Q-234.56 18.95-233.61 21.14Q-232.66 23.33-231.00 24.99Q-229.34 26.65-227.15 27.60Q-224.96 28.55-222.43 28.55L-222.43 28.55L-217.69 28.55Q-215.16 28.55-212.97 27.60Q-210.78 26.65-209.14 24.99Q-207.51 23.33-206.56 21.14Q-205.61 18.95-205.61 16.42L-205.61 16.42ZM-141.12 16.42L-141.12 16.42Q-141.12 20.27-142.57 23.64Q-144.02 27.02-146.55 29.55Q-149.08 32.08-152.46 33.53Q-155.83 34.98-159.68 34.98L-159.68 34.98L-165.06 34.98Q-168.91 34.98-172.31 33.53Q-175.71 32.08-178.24 29.55Q-180.77 27.02-182.22 23.64Q-183.67 20.27-183.67 16.42L-183.67 16.42L-183.67-24.19Q-183.67-28.04-182.22-31.41Q-180.77-34.79-178.24-37.32Q-175.71-39.85-172.31-41.30Q-168.91-42.75-165.06-42.75L-165.06-42.75L-159.68-42.75Q-155.83-42.75-152.46-41.30Q-149.08-39.85-146.55-37.32Q-144.02-34.79-142.57-31.41Q-141.12-28.04-141.12-24.19L-141.12-24.19L-141.12 16.42ZM-147.92 16.42L-147.92-24.19Q-147.92-26.72-148.87-28.91Q-149.82-31.09-151.45-32.73Q-153.09-34.36-155.28-35.31Q-157.46-36.26-160.00-36.26L-160.00-36.26L-164.74-36.26Q-167.27-36.26-169.46-35.31Q-171.65-34.36-173.31-32.73Q-174.97-31.09-175.92-28.91Q-176.87-26.72-176.87-24.19L-176.87-24.19L-176.87 16.42Q-176.87 18.95-175.92 21.14Q-174.97 23.33-173.31 24.99Q-171.65 26.65-169.46 27.60Q-167.27 28.55-164.74 28.55L-164.74 28.55L-160.00 28.55Q-157.46 28.55-155.28 27.60Q-153.09 26.65-151.45 24.99Q-149.82 23.33-148.87 21.14Q-147.92 18.95-147.92 16.42L-147.92 16.42ZM-79.52 33.93L-87.96 33.93L-116.44-3.88L-87.96-41.69L-79.52-41.69L-108.58-3.88L-79.52 33.93ZM-118.07 33.93L-124.87 33.93L-124.87-41.69L-118.07-41.69L-118.07 33.93ZM-61.91 33.93L-68.71 33.93L-68.71-41.69L-61.91-41.69L-61.91 33.93ZM-2.06 33.93L-5.64 33.93L-37.18-21.13L-37.81-24.40L-37.81 33.93L-44.61 33.93L-44.61-41.69L-41.08-41.69L-9.54 13.41L-8.86 16.63L-8.86-41.69L-2.06-41.69L-2.06 33.93ZM56.69-5.83L56.69 33.93L54.53 33.93L50.57 27.86Q48.09 31.13 44.56 33.06Q41.03 34.98 36.70 34.98L36.70 34.98L32.75 34.98Q28.90 34.98 25.50 33.53Q22.10 32.08 19.56 29.55Q17.03 27.02 15.58 23.64Q14.13 20.27 14.13 16.42L14.13 16.42L14.13-24.19Q14.13-28.04 15.58-31.41Q17.03-34.79 19.56-37.32Q22.10-39.85 25.50-41.30Q28.90-42.75 32.75-42.75L32.75-42.75L38.13-42.75Q41.98-42.75 45.35-41.30Q48.73-39.85 51.26-37.32Q53.79-34.79 55.24-31.41Q56.69-28.04 56.69-24.19L56.69-24.19L56.69-21.13L49.89-20.07L49.89-24.19Q49.89-26.72 48.94-28.91Q47.99-31.09 46.35-32.73Q44.72-34.36 42.53-35.31Q40.34-36.26 37.81-36.26L37.81-36.26L33.06-36.26Q30.53-36.26 28.34-35.31Q26.16-34.36 24.50-32.73Q22.83-31.09 21.88-28.91Q20.94-26.72 20.94-24.19L20.94-24.19L20.94 16.42Q20.94 18.95 21.88 21.14Q22.83 23.33 24.50 24.99Q26.16 26.65 28.34 27.60Q30.53 28.55 33.06 28.55L33.06 28.55L37.81 28.55Q40.34 28.55 42.53 27.60Q44.72 26.65 46.35 24.99Q47.99 23.33 48.94 21.14Q49.89 18.95 49.89 16.42L49.89 16.42L49.89 0.65L37.81 0.65L37.81-5.83L56.69-5.83ZM140.33 15.36L140.33 15.36Q140.33 19.21 138.88 22.59Q137.43 25.96 134.89 28.50Q132.36 31.03 128.96 32.48Q125.56 33.93 121.71 33.93L121.71 33.93L97.77 33.93L97.77-41.69L121.71-41.69Q125.56-41.69 128.96-40.24Q132.36-38.79 134.89-36.26Q137.43-33.73 138.88-30.33Q140.33-26.93 140.33-23.08L140.33-23.08L140.33-22.34Q140.33-19.65 139.61-17.20Q138.90-14.75 137.58-12.64Q136.27-10.53 134.47-8.81Q132.68-7.10 130.46-5.94L130.46-5.94Q132.68-4.78 134.47-3.07Q136.27-1.35 137.58 0.78Q138.90 2.92 139.61 5.37Q140.33 7.82 140.33 10.51L140.33 10.51L140.33 15.36ZM133.52 15.36L133.52 9.41Q133.52 6.87 132.57 4.69Q131.63 2.50 129.96 0.86Q128.30-0.77 126.11-1.72Q123.93-2.67 121.39-2.67L121.39-2.67L104.57-2.67L104.57 27.44L121.39 27.44Q123.93 27.44 126.11 26.49Q128.30 25.54 129.96 23.91Q131.63 22.27 132.57 20.08Q133.52 17.90 133.52 15.36L133.52 15.36ZM133.52-21.29L133.52-23.08Q133.52-25.61 132.57-27.80Q131.63-29.99 129.96-31.65Q128.30-33.31 126.11-34.26Q123.93-35.21 121.39-35.21L121.39-35.21L104.57-35.21L104.57-9.16L121.39-9.16Q123.93-9.16 126.11-10.11Q128.30-11.06 129.96-12.72Q131.63-14.38 132.57-16.57Q133.52-18.75 133.52-21.29L133.52-21.29ZM187.95 33.93L152.19 33.93L152.19-41.69L158.99-41.69L158.99 27.44L187.95 27.44L187.95 33.93ZM240.21 16.42L240.21 16.42Q240.21 20.27 238.75 23.64Q237.30 27.02 234.77 29.55Q232.24 32.08 228.87 33.53Q225.49 34.98 221.64 34.98L221.64 34.98L216.26 34.98Q212.41 34.98 209.01 33.53Q205.61 32.08 203.08 29.55Q200.55 27.02 199.10 23.64Q197.65 20.27 197.65 16.42L197.65 16.42L197.65-24.19Q197.65-28.04 199.10-31.41Q200.55-34.79 203.08-37.32Q205.61-39.85 209.01-41.30Q212.41-42.75 216.26-42.75L216.26-42.75L221.64-42.75Q225.49-42.75 228.87-41.30Q232.24-39.85 234.77-37.32Q237.30-34.79 238.75-31.41Q240.21-28.04 240.21-24.19L240.21-24.19L240.21 16.42ZM233.40 16.42L233.40-24.19Q233.40-26.72 232.45-28.91Q231.50-31.09 229.87-32.73Q228.23-34.36 226.05-35.31Q223.86-36.26 221.33-36.26L221.33-36.26L216.58-36.26Q214.05-36.26 211.86-35.31Q209.67-34.36 208.01-32.73Q206.35-31.09 205.40-28.91Q204.45-26.72 204.45-24.19L204.45-24.19L204.45 16.42Q204.45 18.95 205.40 21.14Q206.35 23.33 208.01 24.99Q209.67 26.65 211.86 27.60Q214.05 28.55 216.58 28.55L216.58 28.55L221.33 28.55Q223.86 28.55 226.05 27.60Q228.23 26.65 229.87 24.99Q231.50 23.33 232.45 21.14Q233.40 18.95 233.40 16.42L233.40 16.42ZM297.90-5.83L297.90 33.93L295.73 33.93L291.78 27.86Q289.30 31.13 285.77 33.06Q282.23 34.98 277.91 34.98L277.91 34.98L273.96 34.98Q270.11 34.98 266.70 33.53Q263.30 32.08 260.77 29.55Q258.24 27.02 256.79 23.64Q255.34 20.27 255.34 16.42L255.34 16.42L255.34-24.19Q255.34-28.04 256.79-31.41Q258.24-34.79 260.77-37.32Q263.30-39.85 266.70-41.30Q270.11-42.75 273.96-42.75L273.96-42.75L279.33-42.75Q283.18-42.75 286.56-41.30Q289.93-39.85 292.46-37.32Q295.00-34.79 296.45-31.41Q297.90-28.04 297.90-24.19L297.90-24.19L297.90-21.13L291.09-20.07L291.09-24.19Q291.09-26.72 290.14-28.91Q289.20-31.09 287.56-32.73Q285.93-34.36 283.74-35.31Q281.55-36.26 279.02-36.26L279.02-36.26L274.27-36.26Q271.74-36.26 269.55-35.31Q267.36-34.36 265.70-32.73Q264.04-31.09 263.09-28.91Q262.14-26.72 262.14-24.19L262.14-24.19L262.14 16.42Q262.14 18.95 263.09 21.14Q264.04 23.33 265.70 24.99Q267.36 26.65 269.55 27.60Q271.74 28.55 274.27 28.55L274.27 28.55L279.02 28.55Q281.55 28.55 283.74 27.60Q285.93 26.65 287.56 24.99Q289.20 23.33 290.14 21.14Q291.09 18.95 291.09 16.42L291.09 16.42L291.09 0.65L279.02 0.65L279.02-5.83L297.90-5.83Z"/></g>
</svg>